<mxfile host="app.diagrams.net" modified="2023-10-30T23:53:57.218Z" agent="Mozilla/5.0 (Macintosh; Intel Mac OS X 10_15_7) AppleWebKit/537.36 (KHTML, like Gecko) Chrome/118.0.0.0 Safari/537.36" etag="9F9QrS0kqk45P-jM-2kX" version="21.6.8" type="device">
  <diagram name="Page-1" id="rU83HrHhGt8Y69T4ezMK">
    <mxGraphModel dx="1781" dy="614" grid="1" gridSize="10" guides="1" tooltips="1" connect="1" arrows="1" fold="1" page="1" pageScale="1" pageWidth="827" pageHeight="1169" math="0" shadow="0">
      <root>
        <mxCell id="0" />
        <mxCell id="1" parent="0" />
        <mxCell id="7FIdR-759IJmOBNlZWlw-2" value="Naukan OCR" style="rounded=0;whiteSpace=wrap;html=1;" vertex="1" parent="1">
          <mxGeometry x="280" y="80" width="120" height="60" as="geometry" />
        </mxCell>
        <mxCell id="7FIdR-759IJmOBNlZWlw-3" value="" style="endArrow=classic;html=1;rounded=0;exitX=0.5;exitY=1;exitDx=0;exitDy=0;" edge="1" parent="1" source="7FIdR-759IJmOBNlZWlw-2">
          <mxGeometry width="50" height="50" relative="1" as="geometry">
            <mxPoint x="390" y="340" as="sourcePoint" />
            <mxPoint x="340" y="180" as="targetPoint" />
          </mxGeometry>
        </mxCell>
        <mxCell id="7FIdR-759IJmOBNlZWlw-4" value="naukan-ocr image" style="rounded=0;whiteSpace=wrap;html=1;" vertex="1" parent="1">
          <mxGeometry x="280" y="180" width="120" height="60" as="geometry" />
        </mxCell>
        <mxCell id="7FIdR-759IJmOBNlZWlw-8" value="data&lt;br&gt;" style="swimlane;horizontal=0;whiteSpace=wrap;html=1;" vertex="1" parent="1">
          <mxGeometry x="-60" y="280" width="200" height="400" as="geometry" />
        </mxCell>
        <mxCell id="7FIdR-759IJmOBNlZWlw-9" value="nenl1985-pdf" style="whiteSpace=wrap;html=1;align=left;" vertex="1" parent="7FIdR-759IJmOBNlZWlw-8">
          <mxGeometry x="30" y="10" width="160" height="20" as="geometry" />
        </mxCell>
        <mxCell id="7FIdR-759IJmOBNlZWlw-10" value="nenl1985-pdf-by-pages" style="whiteSpace=wrap;html=1;align=left;" vertex="1" parent="7FIdR-759IJmOBNlZWlw-8">
          <mxGeometry x="30" y="60" width="160" height="20" as="geometry" />
        </mxCell>
        <mxCell id="7FIdR-759IJmOBNlZWlw-11" value="nenl1985-hocr-by-pages" style="whiteSpace=wrap;html=1;align=left;" vertex="1" parent="7FIdR-759IJmOBNlZWlw-8">
          <mxGeometry x="30" y="190" width="160" height="20" as="geometry" />
        </mxCell>
        <mxCell id="7FIdR-759IJmOBNlZWlw-12" value="nenl1985-hocr-by-pages-mod" style="whiteSpace=wrap;html=1;" vertex="1" parent="7FIdR-759IJmOBNlZWlw-8">
          <mxGeometry x="30" y="240" width="160" height="20" as="geometry" />
        </mxCell>
        <mxCell id="7FIdR-759IJmOBNlZWlw-13" value="nenl1985-hocr-pages-merge" style="whiteSpace=wrap;html=1;align=left;" vertex="1" parent="7FIdR-759IJmOBNlZWlw-8">
          <mxGeometry x="30" y="295" width="160" height="20" as="geometry" />
        </mxCell>
        <mxCell id="7FIdR-759IJmOBNlZWlw-14" value="nenl1985-pdf-merged" style="whiteSpace=wrap;html=1;align=left;" vertex="1" parent="7FIdR-759IJmOBNlZWlw-8">
          <mxGeometry x="30" y="340" width="160" height="20" as="geometry" />
        </mxCell>
        <mxCell id="7FIdR-759IJmOBNlZWlw-16" value="nenl1985-boxes-by-pages" style="whiteSpace=wrap;html=1;align=left;" vertex="1" parent="7FIdR-759IJmOBNlZWlw-8">
          <mxGeometry x="30" y="100" width="160" height="20" as="geometry" />
        </mxCell>
        <mxCell id="7FIdR-759IJmOBNlZWlw-17" value="nenl1985-boxes-edited" style="whiteSpace=wrap;html=1;align=left;" vertex="1" parent="7FIdR-759IJmOBNlZWlw-8">
          <mxGeometry x="30" y="140" width="160" height="20" as="geometry" />
        </mxCell>
        <mxCell id="7FIdR-759IJmOBNlZWlw-18" value="(example types)" style="text;html=1;strokeColor=none;fillColor=none;align=center;verticalAlign=middle;whiteSpace=wrap;rounded=0;" vertex="1" parent="1">
          <mxGeometry x="30" y="250" width="100" height="30" as="geometry" />
        </mxCell>
        <mxCell id="7FIdR-759IJmOBNlZWlw-19" value="processors" style="swimlane;horizontal=0;whiteSpace=wrap;html=1;" vertex="1" parent="1">
          <mxGeometry x="240" y="280" width="200" height="320" as="geometry" />
        </mxCell>
        <mxCell id="7FIdR-759IJmOBNlZWlw-20" value="PdfToPngPages&lt;br&gt;{input_dir, output_dir}" style="rounded=0;whiteSpace=wrap;html=1;" vertex="1" parent="7FIdR-759IJmOBNlZWlw-19">
          <mxGeometry x="30" y="10" width="160" height="40" as="geometry" />
        </mxCell>
        <mxCell id="7FIdR-759IJmOBNlZWlw-21" value="PagesToBoxes&lt;br&gt;{input_dir, output_dir,&lt;br&gt;box_making_model}" style="rounded=0;whiteSpace=wrap;html=1;" vertex="1" parent="7FIdR-759IJmOBNlZWlw-19">
          <mxGeometry x="30" y="60" width="160" height="40" as="geometry" />
        </mxCell>
        <mxCell id="7FIdR-759IJmOBNlZWlw-22" value="PagesToHocrs&lt;br&gt;{input_dir, output_dir,&lt;br&gt;hocr_making_model}" style="rounded=0;whiteSpace=wrap;html=1;" vertex="1" parent="7FIdR-759IJmOBNlZWlw-19">
          <mxGeometry x="30" y="110" width="160" height="40" as="geometry" />
        </mxCell>
        <mxCell id="7FIdR-759IJmOBNlZWlw-23" value="PagesHocrsMerge&lt;br&gt;{hocr_input_dir,&lt;br&gt;pages_input_dir,&lt;br&gt;output_dir}" style="rounded=0;whiteSpace=wrap;html=1;" vertex="1" parent="7FIdR-759IJmOBNlZWlw-19">
          <mxGeometry x="30" y="160" width="160" height="60" as="geometry" />
        </mxCell>
        <mxCell id="7FIdR-759IJmOBNlZWlw-24" value="PdfUnifier&lt;br&gt;{input_dir, output_dir}" style="rounded=0;whiteSpace=wrap;html=1;" vertex="1" parent="7FIdR-759IJmOBNlZWlw-19">
          <mxGeometry x="30" y="230" width="160" height="40" as="geometry" />
        </mxCell>
        <mxCell id="7FIdR-759IJmOBNlZWlw-27" value="models" style="swimlane;horizontal=0;whiteSpace=wrap;html=1;" vertex="1" parent="1">
          <mxGeometry x="500" y="290" width="230" height="210" as="geometry" />
        </mxCell>
        <mxCell id="7FIdR-759IJmOBNlZWlw-29" value="nenl1985" style="swimlane;whiteSpace=wrap;html=1;" vertex="1" parent="7FIdR-759IJmOBNlZWlw-27">
          <mxGeometry x="30" y="9" width="90" height="80" as="geometry" />
        </mxCell>
        <mxCell id="7FIdR-759IJmOBNlZWlw-30" value="v1" style="whiteSpace=wrap;html=1;" vertex="1" parent="7FIdR-759IJmOBNlZWlw-29">
          <mxGeometry y="30" width="60" height="20" as="geometry" />
        </mxCell>
        <mxCell id="7FIdR-759IJmOBNlZWlw-32" value="v2" style="whiteSpace=wrap;html=1;" vertex="1" parent="7FIdR-759IJmOBNlZWlw-29">
          <mxGeometry y="50" width="60" height="20" as="geometry" />
        </mxCell>
        <mxCell id="7FIdR-759IJmOBNlZWlw-33" value="v3" style="whiteSpace=wrap;html=1;" vertex="1" parent="7FIdR-759IJmOBNlZWlw-29">
          <mxGeometry y="70" width="60" height="20" as="geometry" />
        </mxCell>
        <mxCell id="7FIdR-759IJmOBNlZWlw-34" value="nenl1990" style="swimlane;whiteSpace=wrap;html=1;" vertex="1" parent="7FIdR-759IJmOBNlZWlw-27">
          <mxGeometry x="130" y="90" width="90" height="80" as="geometry" />
        </mxCell>
        <mxCell id="7FIdR-759IJmOBNlZWlw-35" value="v1" style="whiteSpace=wrap;html=1;" vertex="1" parent="7FIdR-759IJmOBNlZWlw-34">
          <mxGeometry y="30" width="60" height="20" as="geometry" />
        </mxCell>
        <mxCell id="7FIdR-759IJmOBNlZWlw-36" value="v2" style="whiteSpace=wrap;html=1;" vertex="1" parent="7FIdR-759IJmOBNlZWlw-34">
          <mxGeometry y="50" width="60" height="20" as="geometry" />
        </mxCell>
        <mxCell id="7FIdR-759IJmOBNlZWlw-40" value="train" style="swimlane;horizontal=0;whiteSpace=wrap;html=1;" vertex="1" parent="1">
          <mxGeometry x="810" y="290" width="200" height="200" as="geometry" />
        </mxCell>
        <mxCell id="7FIdR-759IJmOBNlZWlw-41" value="manager.py" style="whiteSpace=wrap;html=1;" vertex="1" parent="7FIdR-759IJmOBNlZWlw-40">
          <mxGeometry x="40" y="10" width="120" height="30" as="geometry" />
        </mxCell>
        <mxCell id="7FIdR-759IJmOBNlZWlw-42" value="nenl1985" style="swimlane;whiteSpace=wrap;html=1;" vertex="1" parent="7FIdR-759IJmOBNlZWlw-40">
          <mxGeometry x="40" y="50" width="130" height="150" as="geometry" />
        </mxCell>
        <mxCell id="7FIdR-759IJmOBNlZWlw-43" value="prep&lt;br&gt;{unicharambigs,&lt;br&gt;font_properties}" style="whiteSpace=wrap;html=1;" vertex="1" parent="7FIdR-759IJmOBNlZWlw-42">
          <mxGeometry x="5" y="25" width="120" height="60" as="geometry" />
        </mxCell>
        <mxCell id="7FIdR-759IJmOBNlZWlw-44" value="*.box, *.tr, *.png,&lt;br&gt;*.normproto,&lt;br&gt;*.shapetable,&lt;br&gt;*.traineddata, ..." style="text;html=1;align=center;verticalAlign=middle;resizable=0;points=[];autosize=1;strokeColor=none;fillColor=none;" vertex="1" parent="7FIdR-759IJmOBNlZWlw-42">
          <mxGeometry x="10" y="80" width="110" height="70" as="geometry" />
        </mxCell>
        <mxCell id="7FIdR-759IJmOBNlZWlw-46" value="" style="shape=flexArrow;endArrow=classic;html=1;rounded=0;exitX=-0.005;exitY=0.335;exitDx=0;exitDy=0;exitPerimeter=0;" edge="1" parent="1" source="7FIdR-759IJmOBNlZWlw-40">
          <mxGeometry width="50" height="50" relative="1" as="geometry">
            <mxPoint x="540" y="410" as="sourcePoint" />
            <mxPoint x="730" y="357" as="targetPoint" />
          </mxGeometry>
        </mxCell>
        <mxCell id="7FIdR-759IJmOBNlZWlw-47" value="" style="shape=flexArrow;endArrow=classic;html=1;rounded=0;exitX=0;exitY=0.448;exitDx=0;exitDy=0;exitPerimeter=0;" edge="1" parent="1">
          <mxGeometry width="50" height="50" relative="1" as="geometry">
            <mxPoint x="500" y="360.08000000000004" as="sourcePoint" />
            <mxPoint x="440" y="360" as="targetPoint" />
          </mxGeometry>
        </mxCell>
        <mxCell id="7FIdR-759IJmOBNlZWlw-48" value="" style="shape=flexArrow;endArrow=classic;startArrow=classic;html=1;rounded=0;" edge="1" parent="1">
          <mxGeometry width="100" height="100" relative="1" as="geometry">
            <mxPoint x="239" y="358" as="sourcePoint" />
            <mxPoint x="140" y="358" as="targetPoint" />
          </mxGeometry>
        </mxCell>
        <mxCell id="7FIdR-759IJmOBNlZWlw-58" value="" style="endArrow=classic;html=1;rounded=0;exitX=0;exitY=0.5;exitDx=0;exitDy=0;" edge="1" parent="1" source="7FIdR-759IJmOBNlZWlw-4">
          <mxGeometry width="50" height="50" relative="1" as="geometry">
            <mxPoint x="350" y="410" as="sourcePoint" />
            <mxPoint x="20" y="280" as="targetPoint" />
            <Array as="points">
              <mxPoint x="20" y="210" />
            </Array>
          </mxGeometry>
        </mxCell>
        <mxCell id="7FIdR-759IJmOBNlZWlw-60" value="" style="endArrow=classic;html=1;rounded=0;exitX=0.5;exitY=1;exitDx=0;exitDy=0;entryX=0.5;entryY=0;entryDx=0;entryDy=0;" edge="1" parent="1" source="7FIdR-759IJmOBNlZWlw-4" target="7FIdR-759IJmOBNlZWlw-19">
          <mxGeometry width="50" height="50" relative="1" as="geometry">
            <mxPoint x="350" y="410" as="sourcePoint" />
            <mxPoint x="400" y="360" as="targetPoint" />
          </mxGeometry>
        </mxCell>
        <mxCell id="7FIdR-759IJmOBNlZWlw-62" value="" style="endArrow=classic;html=1;rounded=0;exitX=1;exitY=0.5;exitDx=0;exitDy=0;" edge="1" parent="1" source="7FIdR-759IJmOBNlZWlw-4">
          <mxGeometry width="50" height="50" relative="1" as="geometry">
            <mxPoint x="350" y="410" as="sourcePoint" />
            <mxPoint x="620" y="290" as="targetPoint" />
            <Array as="points">
              <mxPoint x="620" y="210" />
            </Array>
          </mxGeometry>
        </mxCell>
        <mxCell id="7FIdR-759IJmOBNlZWlw-63" value="" style="endArrow=classic;html=1;rounded=0;entryX=0.5;entryY=0;entryDx=0;entryDy=0;" edge="1" parent="1" target="7FIdR-759IJmOBNlZWlw-40">
          <mxGeometry width="50" height="50" relative="1" as="geometry">
            <mxPoint x="400" y="210" as="sourcePoint" />
            <mxPoint x="960" y="170" as="targetPoint" />
            <Array as="points">
              <mxPoint x="910" y="210" />
            </Array>
          </mxGeometry>
        </mxCell>
      </root>
    </mxGraphModel>
  </diagram>
</mxfile>
